<svg width="51" height="50" viewBox="0 0 51 50" fill="none" xmlns="http://www.w3.org/2000/svg">
<path d="M9.43467 44.2386V41.6636C9.44982 41.447 9.41847 41.2297 9.34272 41.0262C9.26697 40.8226 9.14855 40.6375 8.99536 40.4832C8.84217 40.3289 8.65773 40.2089 8.45434 40.1312C8.25095 40.0536 8.0333 40.02 7.81588 40.0328C7.53134 40.0144 7.24702 40.0723 6.99259 40.2006C6.73815 40.3289 6.5229 40.5229 6.36928 40.7624C6.22927 40.5301 6.02901 40.3397 5.78958 40.2113C5.55014 40.0829 5.28041 40.0213 5.00878 40.0328C4.772 40.021 4.53621 40.071 4.32478 40.1779C4.11334 40.2847 3.93357 40.4448 3.80327 40.6422V40.1359H2.90771V44.2386H3.81184V41.964C3.79229 41.8236 3.80417 41.6807 3.84662 41.5455C3.88907 41.4102 3.96104 41.2861 4.05736 41.1819C4.15368 41.0776 4.27196 40.996 4.4037 40.9428C4.53544 40.8895 4.67738 40.866 4.81931 40.874C5.41345 40.874 5.71487 41.2602 5.71487 41.9554V44.2386H6.619V41.964C6.60092 41.8239 6.61382 41.6816 6.65681 41.547C6.69981 41.4124 6.77184 41.2888 6.86786 41.1849C6.96387 41.081 7.08154 40.9994 7.21259 40.9457C7.34364 40.8919 7.48491 40.8675 7.62646 40.874C8.23778 40.874 8.53054 41.2602 8.53054 41.9554V44.2386H9.43467ZM22.8158 40.1359H21.352V38.8913H20.4479V40.1359H19.6126V40.9512H20.4479V42.8223C20.4479 43.775 20.8181 44.3416 21.8772 44.3416C22.2729 44.3428 22.6609 44.2327 22.9966 44.024L22.7383 43.26C22.4982 43.4029 22.2256 43.4826 21.9461 43.4918C21.4983 43.4918 21.352 43.2171 21.352 42.8052V40.9512H22.8158V40.1359ZM30.4535 40.0328C30.2352 40.0264 30.0192 40.0788 29.8282 40.1846C29.6373 40.2903 29.4785 40.4455 29.3686 40.6337V40.1359H28.4817V44.2386H29.3772V41.9382C29.3772 41.2602 29.6699 40.8826 30.2556 40.8826C30.4471 40.8799 30.6372 40.9149 30.8152 40.9856L31.0907 40.1444C30.8862 40.0715 30.6707 40.0337 30.4535 40.0328ZM18.9065 40.462C18.3996 40.1615 17.8168 40.0126 17.2274 40.0328C16.1855 40.0328 15.5139 40.5306 15.5139 41.346C15.5139 42.0155 16.0133 42.4275 16.9346 42.5563L17.3566 42.6163C17.8474 42.6849 18.0799 42.8137 18.0799 43.0454C18.0799 43.363 17.7526 43.5433 17.1413 43.5433C16.6495 43.5574 16.1673 43.4062 15.7722 43.1141L15.3503 43.8093C15.8719 44.1725 16.4967 44.359 17.1327 44.3416C18.321 44.3416 19.0098 43.7836 19.0098 43.0026C19.0098 42.2816 18.4674 41.9039 17.5719 41.7751L17.15 41.7151C16.7624 41.6636 16.4525 41.5864 16.4525 41.3118C16.4525 41.0113 16.7452 40.831 17.236 40.831C17.6867 40.8378 18.1283 40.9589 18.519 41.183L18.9065 40.462ZM42.8961 40.0328C42.6777 40.0264 42.4617 40.0788 42.2707 40.1846C42.0798 40.2903 41.921 40.4455 41.8111 40.6337V40.1359H40.9242V44.2386H41.8197V41.9382C41.8197 41.2602 42.1125 40.8826 42.698 40.8826C42.8896 40.8799 43.0798 40.9149 43.2578 40.9856L43.5333 40.1444C43.3288 40.0715 43.1133 40.0337 42.8961 40.0328ZM31.3576 42.1871C31.3457 42.4761 31.3947 42.7644 31.5013 43.0335C31.6079 43.3026 31.7698 43.5464 31.9766 43.7493C32.1834 43.9522 32.4306 44.1098 32.7022 44.2118C32.9737 44.3138 33.2637 44.358 33.5534 44.3416C34.0911 44.3685 34.6194 44.194 35.0344 43.8523L34.6039 43.1313C34.2943 43.3665 33.9169 43.496 33.5276 43.5004C33.192 43.4801 32.8768 43.3329 32.6464 43.0888C32.416 42.8448 32.2877 42.5223 32.2877 42.1872C32.2877 41.852 32.416 41.5295 32.6464 41.2855C32.8768 41.0415 33.192 40.8943 33.5276 40.874C33.9169 40.8784 34.2943 41.0078 34.6039 41.2431L35.0344 40.5221C34.6193 40.1804 34.0911 40.0059 33.5534 40.0328C33.2637 40.0164 32.9738 40.0606 32.7022 40.1626C32.4306 40.2646 32.1835 40.4221 31.9767 40.625C31.7699 40.8279 31.6079 41.0717 31.5013 41.3408C31.3947 41.6098 31.3458 41.8981 31.3576 42.1871ZM39.7445 42.1871V40.1359H38.849V40.6337C38.6962 40.4373 38.4983 40.2803 38.2721 40.1758C38.0459 40.0712 37.7979 40.0222 37.5488 40.0328C36.9939 40.06 36.4707 40.2988 36.0876 40.6998C35.7045 41.1009 35.4908 41.6334 35.4908 42.1872C35.4908 42.741 35.7045 43.2735 36.0876 43.6746C36.4707 44.0756 36.9939 44.3144 37.5488 44.3416C37.7979 44.3522 38.0459 44.3031 38.2722 44.1986C38.4984 44.0941 38.6962 43.937 38.849 43.7407V44.2386H39.7445V42.1871ZM36.4121 42.1871C36.426 41.945 36.5107 41.7122 36.6557 41.5175C36.8008 41.3228 36.9998 41.1747 37.2282 41.0914C37.4567 41.0081 37.7046 40.9932 37.9415 41.0487C38.1783 41.1042 38.3937 41.2275 38.561 41.4035C38.7283 41.5795 38.8404 41.8005 38.8832 42.0392C38.9261 42.2779 38.8979 42.5239 38.8022 42.7468C38.7065 42.9698 38.5474 43.1599 38.3446 43.2938C38.1418 43.4277 37.9041 43.4995 37.6608 43.5004C37.4903 43.5027 37.3211 43.4697 37.164 43.4036C37.0069 43.3375 36.8652 43.2397 36.7479 43.1163C36.6306 42.993 36.5402 42.8467 36.4824 42.6868C36.4246 42.5268 36.4007 42.3567 36.4121 42.1871ZM25.6057 40.0328C25.0473 40.0621 24.5219 40.3059 24.1398 40.713C23.7578 41.12 23.5487 41.6587 23.5565 42.2161C23.5643 42.7735 23.7884 43.3062 24.1817 43.7025C24.575 44.0988 25.1069 44.3278 25.666 44.3416C26.2803 44.3631 26.8811 44.1583 27.3537 43.7664L26.9145 43.1056C26.5745 43.3772 26.1533 43.5282 25.7176 43.5347C25.4217 43.5595 25.1277 43.4686 24.8979 43.2811C24.6681 43.0937 24.5205 42.8245 24.4863 42.5304H27.5431C27.5518 42.4189 27.5603 42.3073 27.5603 42.1871C27.5518 40.9083 26.7595 40.0328 25.6057 40.0328ZM25.5884 40.831C25.8589 40.8258 26.1205 40.9277 26.3158 41.1143C26.5111 41.3009 26.6242 41.5571 26.6304 41.8267H24.4949C24.5106 41.5513 24.6338 41.2929 24.8382 41.1068C25.0425 40.9208 25.3118 40.8218 25.5884 40.831ZM48.0539 42.1871V38.4879H47.1584V40.6337C47.0055 40.4373 46.8077 40.2803 46.5815 40.1758C46.3553 40.0712 46.1073 40.0222 45.8582 40.0328C45.3033 40.0599 44.7801 40.2987 44.397 40.6998C44.0138 41.1009 43.8002 41.6334 43.8002 42.1872C43.8002 42.741 44.0138 43.2736 44.397 43.6746C44.7801 44.0757 45.3033 44.3145 45.8582 44.3416C46.1073 44.3522 46.3553 44.3031 46.5815 44.1986C46.8077 44.0941 47.0055 43.937 47.1584 43.7407V44.2386H48.0539V42.1871ZM49.5467 43.644C49.6023 43.6436 49.6574 43.6545 49.7087 43.676C49.758 43.6965 49.8029 43.7262 49.8411 43.7634C49.8789 43.8006 49.9092 43.8447 49.9302 43.8933C49.9518 43.9433 49.9629 43.9971 49.9629 44.0515C49.9629 44.1059 49.9518 44.1597 49.9302 44.2097C49.9091 44.2581 49.8788 44.3021 49.8411 44.3391C49.8028 44.3764 49.7579 44.4062 49.7087 44.427C49.6575 44.4489 49.6024 44.4599 49.5467 44.4596C49.4648 44.4604 49.3844 44.4371 49.3157 44.3927C49.2469 44.3483 49.1929 44.2846 49.1602 44.2097C49.1387 44.1597 49.1277 44.1059 49.1277 44.0515C49.1277 43.9971 49.1387 43.9433 49.1602 43.8933C49.1812 43.8448 49.2113 43.8007 49.249 43.7634C49.2871 43.7259 49.3322 43.6962 49.3818 43.676C49.4341 43.6544 49.4902 43.6435 49.5467 43.644ZM49.5467 44.3696C49.5891 44.3699 49.6312 44.3614 49.6701 44.3446C49.7075 44.3284 49.7415 44.3054 49.7703 44.2766C49.8298 44.2168 49.8631 44.136 49.8631 44.0517C49.8631 43.9675 49.8298 43.8867 49.7703 43.8268C49.7416 43.7982 49.7075 43.7753 49.6701 43.7594C49.6311 43.7429 49.5891 43.7346 49.5467 43.7349C49.5035 43.7346 49.4608 43.7429 49.4209 43.7594C49.3829 43.775 49.3483 43.7979 49.3191 43.8268C49.2597 43.8867 49.2263 43.9675 49.2263 44.0517C49.2263 44.136 49.2597 44.2168 49.3191 44.2766C49.3484 44.3056 49.3829 44.3287 49.4209 44.3446C49.4607 44.3614 49.5035 44.3699 49.5467 44.3696ZM49.5708 43.8608C49.6111 43.8582 49.651 43.8697 49.6836 43.8933C49.6967 43.904 49.707 43.9176 49.7139 43.9329C49.7207 43.9483 49.7239 43.965 49.7232 43.9818C49.7237 43.9962 49.7211 44.0105 49.7157 44.0238C49.7102 44.0372 49.702 44.0492 49.6916 44.0592C49.6667 44.0813 49.6351 44.0945 49.6019 44.0967L49.7262 44.2396H49.629L49.5137 44.0977H49.4766V44.2396H49.3954V43.8608H49.5708ZM49.4766 43.9318V44.0328H49.5698C49.5877 44.0337 49.6055 44.0293 49.621 44.0202C49.6273 44.016 49.6323 44.0103 49.6357 44.0036C49.639 43.9968 49.6405 43.9893 49.64 43.9818C49.6404 43.9744 49.6389 43.9671 49.6355 43.9605C49.6322 43.9539 49.6272 43.9483 49.621 43.9442C49.6055 43.9353 49.5877 43.931 49.5698 43.9318H49.4766ZM44.7216 42.1871C44.7355 41.945 44.8202 41.7123 44.9652 41.5176C45.1102 41.3229 45.3092 41.1748 45.5377 41.0915C45.7661 41.0082 46.0141 40.9934 46.2509 41.0488C46.4877 41.1043 46.703 41.2276 46.8704 41.4036C47.0377 41.5797 47.1497 41.8006 47.1926 42.0393C47.2354 42.278 47.2072 42.524 47.1115 42.7469C47.0158 42.9698 46.8567 43.16 46.6539 43.2938C46.4511 43.4277 46.2134 43.4995 45.9701 43.5004C45.7996 43.5026 45.6305 43.4697 45.4733 43.4036C45.3162 43.3375 45.1746 43.2397 45.0573 43.1163C44.94 42.9929 44.8496 42.8467 44.7918 42.6867C44.734 42.5268 44.7101 42.3567 44.7216 42.1871ZM14.4806 42.1871V40.1359H13.585V40.6337C13.4322 40.4373 13.2344 40.2803 13.0082 40.1758C12.782 40.0712 12.5339 40.0222 12.2848 40.0328C11.7299 40.06 11.2068 40.2988 10.8237 40.6998C10.4406 41.1009 10.2269 41.6334 10.2269 42.1872C10.2269 42.741 10.4406 43.2735 10.8237 43.6746C11.2068 44.0756 11.7299 44.3144 12.2848 44.3416C12.5339 44.3522 12.782 44.3031 13.0082 44.1986C13.2344 44.0941 13.4322 43.937 13.585 43.7407V44.2386H14.4806V42.1871ZM11.1483 42.1871C11.1622 41.945 11.2469 41.7123 11.3919 41.5176C11.5369 41.3229 11.7359 41.1748 11.9644 41.0915C12.1928 41.0082 12.4408 40.9934 12.6776 41.0488C12.9144 41.1043 13.1297 41.2276 13.2971 41.4036C13.4644 41.5797 13.5764 41.8006 13.6192 42.0393C13.6621 42.278 13.6339 42.524 13.5382 42.7469C13.4425 42.9698 13.2834 43.16 13.0806 43.2939C12.8777 43.4277 12.64 43.4995 12.3968 43.5004C12.2263 43.5026 12.0571 43.4697 11.9 43.4036C11.7429 43.3375 11.6013 43.2397 11.484 43.1163C11.3667 42.9929 11.2763 42.8467 11.2185 42.6867C11.1607 42.5268 11.1368 42.3567 11.1483 42.1871Z" fill="#A0AEB7"/>
<path d="M32.1727 8.86913H18.6089V33.1653H32.1727V8.86913Z" fill="#FF5F00"/>
<path d="M19.47 21.018C19.4678 18.6781 19.9998 16.3684 21.0256 14.2638C22.0513 12.1591 23.544 10.3146 25.3907 8.86997C23.1039 7.07828 20.3575 5.96406 17.4655 5.65465C14.5734 5.34525 11.6524 5.85314 9.03624 7.12029C6.42009 8.38743 4.21437 10.3627 2.67121 12.8203C1.12804 15.2779 0.309692 18.1187 0.309692 21.018C0.309692 23.9173 1.12804 26.7582 2.67121 29.2158C4.21437 31.6734 6.42009 33.6487 9.03624 34.9158C11.6524 36.183 14.5734 36.6909 17.4655 36.3814C20.3575 36.072 23.1039 34.9578 25.3907 33.1661C23.544 31.7215 22.0513 29.877 21.0256 27.7723C19.9998 25.6677 19.4679 23.3579 19.47 21.018Z" fill="#EB001B"/>
<path d="M50.471 21.018C50.4712 23.9173 49.6529 26.7581 48.1098 29.2157C46.5668 31.6733 44.3611 33.6486 41.745 34.9158C39.1289 36.1829 36.2079 36.6908 33.3159 36.3814C30.4239 36.072 27.6776 34.9578 25.3909 33.1661C27.2359 31.72 28.7274 29.8752 29.753 27.7709C30.7786 25.6666 31.3115 23.3576 31.3115 21.018C31.3115 18.6785 30.7786 16.3695 29.753 14.2652C28.7274 12.1608 27.2359 10.3161 25.3909 8.86997C27.6776 7.07828 30.4239 5.96405 33.3159 5.65465C36.2079 5.34525 39.1289 5.85315 41.745 7.12031C44.3611 8.38747 46.5668 10.3627 48.1098 12.8204C49.6529 15.278 50.4712 18.1188 50.471 21.018Z" fill="#F79E1B"/>
<path d="M48.9921 30.5923V30.0949H49.1934V29.9935H48.6809V30.0949H48.8822V30.5923H48.9921ZM49.987 30.5923V29.9925H49.83L49.6493 30.4051L49.4686 29.9925H49.3114V30.5923H49.4223V30.1399L49.5918 30.5299H49.7068L49.8762 30.1389V30.5923H49.987Z" fill="#F79E1B"/>
</svg>
