<svg width="61" height="60" viewBox="0 0 61 60" fill="none" xmlns="http://www.w3.org/2000/svg">
<path d="M30.3459 20.6157L26.3245 39.3562H21.4603L25.4821 20.6157H30.3459ZM50.8092 32.7167L53.3692 25.6792L54.8425 32.7167H50.8092ZM56.238 39.3562H60.7355L56.8063 20.6157H52.6576C51.7226 20.6157 50.9344 21.1561 50.5855 21.9894L43.2873 39.3562H48.3955L49.4095 36.5574H55.6489L56.238 39.3562ZM43.5406 33.2381C43.5617 28.2922 36.6813 28.0182 36.7274 25.8082C36.7422 25.1368 37.3849 24.4215 38.7897 24.2385C39.4862 24.1492 41.4081 24.0767 43.5867 25.0773L44.4388 21.1017C43.2687 20.6798 41.7629 20.2734 39.8892 20.2734C35.0808 20.2734 31.6983 22.8193 31.6712 26.4679C31.6403 29.1659 34.0874 30.6703 35.9273 31.5689C37.8243 32.4874 38.4599 33.0762 38.4506 33.8969C38.4375 35.1543 36.938 35.7111 35.5417 35.7321C33.095 35.7701 31.6767 35.0729 30.5464 34.5477L29.6634 38.6561C30.8018 39.1754 32.8992 39.6273 35.071 39.6505C40.183 39.6505 43.5254 37.1345 43.5406 33.2381ZM23.3957 20.6157L15.5148 39.3562H10.374L6.49551 24.4C6.2604 23.4802 6.05531 23.1422 5.34024 22.7536C4.1706 22.1205 2.23979 21.5283 0.541992 21.1599L0.657013 20.6157H8.93332C9.98753 20.6157 10.936 21.315 11.1775 22.5255L13.2262 33.3709L18.2858 20.6157H23.3957Z" fill="#0094DA"/>
</svg>
